<?xml version="1.0" encoding="UTF-8" standalone="no"?>
<!-- Created with Inkscape (http://www.inkscape.org/) -->

<svg
   version="1.1"
   id="svg188"
   width="24"
   height="24"
   viewBox="0 0 24 24"
   sodipodi:docname="ベル.svg"
   inkscape:version="1.1 (c68e22c387, 2021-05-23)"
   xmlns:inkscape="http://www.inkscape.org/namespaces/inkscape"
   xmlns:sodipodi="http://sodipodi.sourceforge.net/DTD/sodipodi-0.dtd"
   xmlns="http://www.w3.org/2000/svg"
   xmlns:svg="http://www.w3.org/2000/svg">
  <defs
     id="defs192">
    <marker
       style="overflow:visible"
       id="DotL"
       refX="0.0"
       refY="0.0"
       orient="auto"
       inkscape:stockid="DotL"
       inkscape:isstock="true">
      <path
         transform="scale(0.8) translate(7.4, 1)"
         style="fill-rule:evenodd;fill:context-stroke;stroke:context-stroke;stroke-width:1.0pt"
         d="M -2.5,-1.0 C -2.5,1.7600000 -4.7400000,4.0 -7.5,4.0 C -10.260000,4.0 -12.5,1.7600000 -12.5,-1.0 C -12.5,-3.7600000 -10.260000,-6.0 -7.5,-6.0 C -4.7400000,-6.0 -2.5,-3.7600000 -2.5,-1.0 z "
         id="path4486" />
    </marker>
    <marker
       style="overflow:visible"
       id="Arrow1Lstart"
       refX="0.0"
       refY="0.0"
       orient="auto"
       inkscape:stockid="Arrow1Lstart"
       inkscape:isstock="true">
      <path
         transform="scale(0.8) translate(12.5,0)"
         style="fill-rule:evenodd;fill:context-stroke;stroke:context-stroke;stroke-width:1.0pt"
         d="M 0.0,0.0 L 5.0,-5.0 L -12.5,0.0 L 5.0,5.0 L 0.0,0.0 z "
         id="path4425" />
    </marker>
  </defs>
  <sodipodi:namedview
     id="namedview190"
     pagecolor="#ffffff"
     bordercolor="#666666"
     borderopacity="1.0"
     inkscape:pageshadow="2"
     inkscape:pageopacity="0.0"
     inkscape:pagecheckerboard="0"
     showgrid="false"
     inkscape:snap-global="false"
     inkscape:zoom="31.166667"
     inkscape:cx="10.491979"
     inkscape:cy="9.2727273"
     inkscape:window-width="2507"
     inkscape:window-height="1438"
     inkscape:window-x="245"
     inkscape:window-y="51"
     inkscape:window-maximized="0"
     inkscape:current-layer="layer1" />
  <g
     inkscape:groupmode="layer"
     id="layer1"
     inkscape:label="Image 1">
    <rect
       style="display:none;opacity:1;fill:#000000;fill-opacity:1;stroke:#666666;stroke-width:0.7;stroke-linecap:round;stroke-linejoin:round;stroke-miterlimit:4;stroke-dasharray:none"
       id="rect5477"
       width="24.096256"
       height="24"
       x="0.096256673"
       y="0.22459893" />
  </g>
  <g
     inkscape:groupmode="layer"
     inkscape:label="Image"
     id="g194">
    <g
       id="g6608"
       transform="matrix(1.2470069,0,0,1.2470069,-2.6356859,-2.2642968)">
      <path
         id="path5066"
         style="fill:none;stroke:#ffffff;stroke-width:0.994;stroke-linecap:round;stroke-linejoin:round;stroke-miterlimit:4;stroke-dasharray:none;stroke-opacity:1"
         d="m 9.0452869,18.767212 6.1661101,0.03777 M 2.9839571,16.620321 20.695187,16.55615 M 6.0962565,16.524065 c 0,0 -0.1420613,-7.4235474 0.2566845,-8.7914447 C 6.8955331,5.8712582 8.7272726,3.7540107 12,3.6898396 c 3.272727,-0.064171 5.262032,2.4705882 5.614973,3.9465241 0.453446,1.8962293 0.160428,8.7914443 0.160428,8.7914443"
         sodipodi:nodetypes="cccccsssc" />
    </g>
  </g>
</svg>
