<svg xmlns="http://www.w3.org/2000/svg" width="16.875" height="15.938" viewBox="0 0 16.875 15.938">
  <defs>
    <style>
      .cls-1 {
        fill: #fff;
        fill-rule: evenodd;
      }
    </style>
  </defs>
  <path id="シェイプ_5" data-name="シェイプ 5" class="cls-1" d="M55.926,309.692H40.8A0.813,0.813,0,0,1,40,308.871V294.565a0.813,0.813,0,0,1,.805-0.82h9.844a0.821,0.821,0,0,1,0,1.641H41.608V308.05H55.121V301.3a0.805,0.805,0,1,1,1.611,0v7.576A0.813,0.813,0,0,1,55.926,309.692Zm-7.376-5.3a0.8,0.8,0,0,1-.593-0.266l-3.35-3.715a0.832,0.832,0,0,1,.048-1.16,0.794,0.794,0,0,1,1.138.049l2.747,3.047,6.945-7.953a0.794,0.794,0,0,1,1.137-.067,0.834,0.834,0,0,1,.066,1.16l-7.537,8.63a0.8,0.8,0,0,1-.6.275H48.55Z" transform="translate(-40 -293.75)"/>
</svg>
