<svg xmlns="http://www.w3.org/2000/svg" width="18" height="18" viewBox="0 0 18 18">
  <defs>
    <style>
      .cls-1 {
        fill: #0a84e3;
        fill-rule: evenodd;
      }
    </style>
  </defs>
  <path id="シェイプ_16" data-name="シェイプ 16" class="cls-1" d="M78.011,726.986a8.986,8.986,0,1,1,9-8.985A9,9,0,0,1,78.011,726.986Zm0-16.467A7.481,7.481,0,1,0,85.505,718,7.5,7.5,0,0,0,78.011,710.519Zm-3.979,4.146s-0.022-.736-0.032-1.082c0,0,.745.2,0.971,0.26a10.884,10.884,0,0,0,2.45-.833s0.691,0.941.82,1.19a0.207,0.207,0,0,1,.032.108,0.114,0.114,0,0,1-.108.129,0.491,0.491,0,0,1-.291-0.162,24.97,24.97,0,0,1-2.568.725v1.589h2.579v1.2H75.306v1.989h2.579v1.2H75.306v1.428H74.032v-7.743Zm4.468-.952h4.479v5.04c0,0.529.022,0.994,0.022,1.243v0.021c0,1.19-.734,1.644-1.9,1.644-0.13,0-.27-0.011-0.41-0.021a0.069,0.069,0,0,1-.087-0.055,11.429,11.429,0,0,0-.669-1.362,6.855,6.855,0,0,0,1.058.108c0.55,0,.68-0.184.68-0.6v-4.9H79.817v8.153H78.5v-9.278Z" transform="translate(-69 -709)"/>
</svg>
