<!--?xml version="1.0" encoding="utf-8"?-->
<!-- Generator: Adobe Illustrator 18.1.1, SVG Export Plug-In . SVG Version: 6.00 Build 0)  -->

<svg class="svg-inline--fa fa-file-alt fa-w-12" aria-hidden="true" focusable="false" data-prefix="far"
     data-icon="file-alt" role="img" xmlns="http://www.w3.org/2000/svg" viewBox="0 0 384 512" data-fa-i2svg="">
<defs>
        <style>
            .cls-1 {
            fill: #107fcd;
            fill-rule: evenodd;
            }
        </style>
    </defs>
<g>
	<path class="cls-1" d="M436.143,336.18H304.945l-6.758,7.508c-10.742,11.936-26.114,18.774-42.178,18.774
		c-16.065,0-31.437-6.839-42.18-18.783l-6.758-7.5H75.857C33.952,336.18,0,370.141,0,412.03c0,41.896,33.952,75.857,75.857,75.857
		h360.286c41.904,0,75.857-33.96,75.857-75.857C512,370.141,478.048,336.18,436.143,336.18z M351.575,436.474
		c-13.516,0-24.452-10.944-24.452-24.445s10.936-24.444,24.452-24.444c13.501,0,24.436,10.944,24.436,24.444
		S365.076,436.474,351.575,436.474z M430.675,436.474c-13.501,0-24.453-10.944-24.453-24.445s10.952-24.444,24.453-24.444
		c13.5,0,24.436,10.944,24.436,24.444S444.175,436.474,430.675,436.474z"></path>
	<path class="cls-1" d="M242.024,318.317c3.564,3.96,8.646,6.218,13.985,6.218c5.322,0,10.42-2.259,13.984-6.218l71.534-79.494
		c4.985-5.517,6.226-13.452,3.21-20.243c-3.016-6.783-9.775-11.154-17.194-11.154h-33.614V42.929
		c0-10.387-8.42-18.816-18.808-18.816h-38.227c-10.387,0-18.823,8.428-18.823,18.816v164.497h-33.614
		c-7.419,0-14.161,4.371-17.178,11.154c-3.016,6.791-1.774,14.726,3.21,20.243L242.024,318.317z"></path>
</g>
</svg>
