<?xml version="1.0" encoding="utf-8"?>
<!-- Generator: Adobe Illustrator 19.2.1, SVG Export Plug-In . SVG Version: 6.00 Build 0)  -->
<svg version="1.1" id="Layer_1" xmlns="http://www.w3.org/2000/svg" xmlns:xlink="http://www.w3.org/1999/xlink" x="0px" y="0px"
	 viewBox="0 0 387.1 340.1" style="enable-background:new 0 0 387.1 340.1;" xml:space="preserve">
<style type="text/css">
	.st0{fill:#333E48;}
	.st1{enable-background:new    ;}
	.st2{fill:#1E252B;}
</style>
<g>
	<polygon class="st0" points="387.1,76.3 387.1,65.2 339.2,65.2 339.2,76.3 357.6,76.3 357.6,263.8 339.2,263.8 339.2,274.9 
		387.1,274.9 387.1,263.8 368.7,263.8 368.7,76.3 	"/>
</g>
<g class="st1">
	<path class="st2" d="M162.3,145.8c-0.7,2.4-1.3,4.8-1.7,7.2c31.6,8.7,45.6,30.7,45.6,55.2c0,34.9-26.2,58.4-82.2,65.4
		c-1.7-5.7-7.2-16.1-11.3-22c39.2-4.4,65-17.4,65-42.7c0-7.2-2.4-24.2-25.9-31.8c-9.6,21.8-24.2,42.1-41.2,56.7
		c0.9,2.8,2,5.2,3.1,7.4L91,255.5c-1.1-2.2-2.2-4.6-3.1-7.2c-10.9,6.1-22.9,10-35.1,10c-19.2,0-31.8-12.2-31.8-32.5
		c0-30.1,23.1-53.8,54.1-66.5c-0.4-9.4-0.4-19-0.4-29c-16.4,0.4-34,0.9-42.7,0.7l-1.3-25.5c10,0.2,28.3,0.2,44.5,0.2
		c0.4-9.4,0.7-20.3,1.1-29.4l34.2,2.6c-0.4,2.2-2.2,3.9-5.9,4.4c-0.7,6.3-1.1,14.6-1.7,21.6c23.8-1.1,53.6-3.9,77.8-9.2L183,122
		c-24,4.4-55.4,6.5-81.5,7.4c-0.2,7.6-0.4,15-0.4,22.2c9.2-2.2,22.5-3.5,32.7-2.8c0.9-3.3,1.5-6.5,1.7-9.8L162.3,145.8z M81.4,224.3
		c-2.4-11.6-3.9-25.1-5-39.9c-17.2,8.5-29,21.8-29,36.4c0,12.4,9.4,12,12.2,11.8C66.4,232.3,73.8,229.3,81.4,224.3z M125.5,172.6
		c-3.1-0.4-14.4,0.4-24.2,3.1c0.7,10.9,1.3,20.9,2.8,29.6C112.6,196.4,120,185,125.5,172.6z"/>
	<path class="st2" d="M321.9,228.9c0,10.7,0.4,21.4,1.7,28.8h-29l-2-12.6H292c-7,9.6-18.7,15-32.3,15c-22.5,0-36.4-16.8-36.4-36.4
		c0-31.2,27.7-45.8,66.3-45.8c0-12-4.1-21.1-21.8-21.1c-11.1,0-22,3.5-29.9,8.3l-6.1-20.9c8.1-4.8,23.1-10.2,42.1-10.2
		c37.7,0,48,24,48,50.6V228.9z M290.5,198.6c-17.4,0-35.5,4.1-35.5,21.8c0,11.6,7.2,16.6,15.3,16.6c7.6,0,20.3-5.5,20.3-20.9V198.6z
		"/>
</g>
</svg>
