<?xml version="1.0" encoding="utf-8"?>
<!-- Generator: Adobe Illustrator 19.2.1, SVG Export Plug-In . SVG Version: 6.00 Build 0)  -->
<svg version="1.1" id="Capa_1" xmlns="http://www.w3.org/2000/svg" xmlns:xlink="http://www.w3.org/1999/xlink" x="0px" y="0px"
	 viewBox="0 0 470.6 470.6" style="enable-background:new 0 0 470.6 470.6;" xml:space="preserve">
<style type="text/css">
	.st0{fill:#5D5E5E;}
	.st1{fill:#666666;}
	.st2{enable-background:new    ;}
</style>
<g>
	<path class="st0" d="M381.3,61.4H28.9C12.9,61.4,0,74.3,0,90.2v290.1c0,15.9,12.9,28.9,28.9,28.9h412.9c15.9,0,28.9-13,28.9-28.9
		V143.5L381.3,61.4z M388.3,136.7v-36l39.1,36H388.3z M364.1,85.6v63.2c0,6.7,5.4,12.1,12.1,12.1h70.2v219.4c0,2.6-2.1,4.6-4.6,4.6
		H28.9c-2.5,0-4.6-2.1-4.6-4.6V90.2c0-2.5,2.1-4.6,4.6-4.6L364.1,85.6L364.1,85.6L364.1,85.6z"/>
</g>
<g>
	<g>
		<polygon class="st1" points="352.3,175.8 352.3,167 314.5,167 314.5,175.8 329,175.8 329,323.8 314.5,323.8 314.5,332.6 
			352.3,332.6 352.3,323.8 337.8,323.8 337.8,175.8 		"/>
	</g>
	<g class="st2">
		<path class="st1" d="M174.8,230.7c-0.6,1.9-1,3.8-1.3,5.7c24.9,6.9,36,24.2,36,43.6c0,27.6-20.7,46.1-64.9,51.6
			c-1.3-4.5-5.7-12.7-8.9-17.4c31-3.5,51.3-13.7,51.3-33.7c0-5.7-1.9-19.1-20.4-25.1c-7.6,17.2-19.1,33.2-32.5,44.8
			c0.7,2.2,1.6,4.1,2.4,5.8l-17.9,11.3c-0.9-1.7-1.7-3.6-2.4-5.7c-8.6,4.8-18.1,7.9-27.7,7.9c-15.2,0-25.1-9.6-25.1-25.7
			c0-23.8,18.2-42.5,42.7-52.5c-0.3-7.4-0.3-15-0.3-22.9c-12.9,0.3-26.8,0.7-33.7,0.6l-1-20.1c7.9,0.2,22.3,0.2,35.1,0.2
			c0.3-7.4,0.6-16,0.9-23.2l27,2.1c-0.3,1.7-1.7,3.1-4.7,3.5c-0.6,5-0.9,11.5-1.3,17.1c18.8-0.9,42.3-3.1,61.4-7.3l1.8,20.8
			c-18.9,3.5-43.7,5.1-64.3,5.8c-0.2,6-0.3,11.8-0.3,17.5c7.3-1.7,17.8-2.8,25.8-2.2c0.7-2.6,1.2-5.1,1.3-7.7L174.8,230.7z
			 M111,292.6c-1.9-9.2-3.1-19.8-3.9-31.5c-13.6,6.7-22.9,17.2-22.9,28.7c0,9.8,7.4,9.5,9.6,9.3C99.1,298.9,105,296.6,111,292.6z
			 M145.8,251.8c-2.4-0.3-11.4,0.3-19.1,2.4c0.6,8.6,1,16.5,2.2,23.4C135.6,270.6,141.4,261.6,145.8,251.8z"/>
		<path class="st1" d="M300.9,296.3c0,8.4,0.3,16.9,1.3,22.7h-22.9l-1.6-9.9h-0.5c-5.5,7.6-14.8,11.8-25.5,11.8
			c-17.8,0-28.7-13.3-28.7-28.7c0-24.6,21.9-36.2,52.3-36.2c0-9.5-3.2-16.7-17.2-16.7c-8.8,0-17.4,2.8-23.6,6.6l-4.8-16.5
			c6.4-3.8,18.2-8.1,33.2-8.1c29.8,0,37.9,18.9,37.9,40L300.9,296.3L300.9,296.3z M276.1,272.3c-13.7,0-28,3.2-28,17.2
			c0,9.2,5.7,13.1,12.1,13.1c6,0,16-4.3,16-16.5L276.1,272.3L276.1,272.3z"/>
	</g>
</g>
</svg>
