<svg xmlns="http://www.w3.org/2000/svg" height="512px" viewBox="0 0 55 60" width="512px" fill="none" stroke="currentColor" stroke-width="2" stroke-linecap="round" stroke-linejoin="round" class="feather feather-credit-card ">
<defs>
    <style>
      .cls-1 {
        stroke: #fff;
      }
    </style>
  </defs>
<g  class="cls-1" fill="none" fill-rule="evenodd"><g id="029---File-Schedule" fill="rgb(0,0,0)" fill-rule="nonzero"><path id="Shape" d="m50 38c-.5522847 0-1 .4477153-1 1v2c0 .5522847.4477153 1 1 1s1-.4477153 1-1v-2c0-.5522847-.4477153-1-1-1z"/><path id="Shape" d="m50 0h-40c-2.76005315.00330612-4.99669388 2.23994685-5 5v19c0 .5522847.44771525 1 1 1s1-.4477153 1-1v-19c0-1.65685425 1.34314575-3 3-3h40c1.6568542 0 3 1.34314575 3 3v39h-7c-2.7600532.0033061-4.9966939 2.2399468-5 5v7h-7c-.5522847 0-1 .4477153-1 1s.4477153 1 1 1h8c.1322605.0000315.2631811-.0264927.385-.078.120754-.0501883.230492-.1235735.323-.216l12-12c.1861107-.1879616.2909693-.4414897.292-.706v-40c-.0033061-2.76005315-2.2399468-4.99669388-5-5zm-4 46h5.586l-8.586 8.586v-5.586c0-1.6568542 1.3431458-3 3-3z"/><path id="Shape" d="m14 6h-2c-.5522847 0-1 .44771525-1 1s.4477153 1 1 1h2c.5522847 0 1-.44771525 1-1s-.4477153-1-1-1z"/><path id="Shape" d="m48 6h-30c-.5522847 0-1 .44771525-1 1s.4477153 1 1 1h30c.5522847 0 1-.44771525 1-1s-.4477153-1-1-1z"/><path id="Shape" d="m14 12h-2c-.5522847 0-1 .4477153-1 1s.4477153 1 1 1h2c.5522847 0 1-.4477153 1-1s-.4477153-1-1-1z"/><path id="Shape" d="m42 13c0-.5522847-.4477153-1-1-1h-23c-.5522847 0-1 .4477153-1 1s.4477153 1 1 1h23c.5522847 0 1-.4477153 1-1z"/><path id="Shape" d="m14 18h-2c-.5522847 0-1 .4477153-1 1s.4477153 1 1 1h2c.5522847 0 1-.4477153 1-1s-.4477153-1-1-1z"/><path id="Shape" d="m18 18c-.5522847 0-1 .4477153-1 1s.4477153 1 1 1h6c.5522847 0 1-.4477153 1-1s-.4477153-1-1-1z"/><path id="Shape" d="m51 21c0-.5522847-.4477153-1-1-1s-1 .4477153-1 1v14c0 .5522847.4477153 1 1 1s1-.4477153 1-1z"/><path id="Shape" d="m18 60c9.9411255 0 18-8.0588745 18-18s-8.0588745-18-18-18-18 8.0588745-18 18c.01157214 9.9363282 8.06367179 17.9884279 18 18zm0-34c8.836556 0 16 7.163444 16 16s-7.163444 16-16 16-16-7.163444-16-16c.01046962-8.8322157 7.1677843-15.9895304 16-16z"/><path id="Shape" d="m23.293 48.707c.3923789.3789722 1.0160848.3735524 1.4018186-.0121814s.3911536-1.0094397.0121814-1.4018186l-5.707-5.707v-12.586c0-.5522847-.4477153-1-1-1s-1 .4477153-1 1v13c.0000566.2651948.1054506.5195073.293.707z"/></g></g>
</svg>