<?xml version="1.0" standalone="no"?><!DOCTYPE svg PUBLIC "-//W3C//DTD SVG 1.1//EN" "http://www.w3.org/Graphics/SVG/1.1/DTD/svg11.dtd"><svg t="1637319722879" class="icon" viewBox="0 0 1024 1024" version="1.1" xmlns="http://www.w3.org/2000/svg" p-id="3402" width="32" height="32" xmlns:xlink="http://www.w3.org/1999/xlink"><defs><style type="text/css"></style></defs><path d="M245.76 122.88h40.96v81.92H245.76zM737.28 122.88h40.96v81.92h-40.96z" p-id="3403" fill="#8a8a8a"></path><path d="M840.9088 942.08h-655.36A61.44 61.44 0 0 1 122.88 880.64v-614.4A61.44 61.44 0 0 1 185.9584 204.8h655.36A61.44 61.44 0 0 1 901.12 266.24v614.4a61.44 61.44 0 0 1-60.2112 61.44zM185.9584 245.76a20.48 20.48 0 0 0-20.48 20.48v614.4a20.48 20.48 0 0 0 20.48 20.48h655.36a20.48 20.48 0 0 0 20.48-20.48v-614.4a20.48 20.48 0 0 0-20.48-20.48z" p-id="3404" fill="#8a8a8a"></path><path d="M143.36 327.68h736.8704v40.96H143.36zM696.32 921.6h-40.96v-204.8a20.48 20.48 0 0 1 20.48-20.48h204.8v40.96H696.32z" p-id="3405" fill="#8a8a8a"></path><path d="M675.84 921.6h163.84a40.96 40.96 0 0 0 40.96-40.96v-163.84z" p-id="3406" fill="#8a8a8a"></path></svg>