<?xml version="1.0" standalone="no"?><!DOCTYPE svg PUBLIC "-//W3C//DTD SVG 1.1//EN" "http://www.w3.org/Graphics/SVG/1.1/DTD/svg11.dtd"><svg t="1637320008445" class="icon" viewBox="0 0 1024 1024" version="1.1" xmlns="http://www.w3.org/2000/svg" p-id="9824" xmlns:xlink="http://www.w3.org/1999/xlink" width="32" height="32"><defs><style type="text/css"></style></defs><path d="M586.666667 85.333333a96 96 0 0 1 95.786666 89.429334L682.666667 181.333333c0-3.626667-0.213333-7.168-0.597334-10.666666h75.264A96 96 0 0 1 853.333333 266.666667v576A96 96 0 0 1 757.333333 938.666667H266.666667A96 96 0 0 1 170.666667 842.666667V266.666667A96 96 0 0 1 266.666667 170.666667h75.264c-0.298667 2.474667-0.426667 4.992-0.554667 7.509333L341.333333 181.333333A96 96 0 0 1 437.333333 85.333333h149.333334z m0 192h-149.333334a95.914667 95.914667 0 0 1-80.725333-44.074666l0.896 1.408H266.666667a32 32 0 0 0-32 32v576c0 17.664 14.336 32 32 32h490.666666a32 32 0 0 0 32-32V266.666667a32 32 0 0 0-32-32h-90.837333l0.896-1.408A95.914667 95.914667 0 0 1 586.666667 277.333333z m0-128h-149.333334a32 32 0 0 0 0 64h149.333334a32 32 0 0 0 0-64z" p-id="9825" fill="#000000"></path></svg>