<?xml version="1.0" standalone="no"?><!DOCTYPE svg PUBLIC "-//W3C//DTD SVG 1.1//EN" "http://www.w3.org/Graphics/SVG/1.1/DTD/svg11.dtd"><svg t="1646045815562" class="icon" viewBox="0 0 1024 1024" version="1.1" xmlns="http://www.w3.org/2000/svg" p-id="10819" width="16" height="16" xmlns:xlink="http://www.w3.org/1999/xlink"><defs><style type="text/css"></style></defs><path d="M579.6 616l-129.4-97c-1.6-1.2-3.2-1.6-5-1.6h-61.4c-2.2 0-4-0.8-5.6-2.4L349.2 486c-1.6-1.6-3.6-2.4-6-2.4h-112.2c-0.8 0-1.6-0.2-2.4-0.4-0.8-0.2-1.4-0.6-2.2-1-0.6-0.4-1.2-1-1.8-1.6s-1-1.2-1.2-2-0.4-1.4-0.6-2.2c0-0.8 0-1.6 0.2-2.4 0.2-0.8 0.4-1.6 0.8-2.2 0.4-0.6 0.8-1.4 1.4-1.8l17.8-17.8c1.6-1.6 3.4-2.4 5.6-2.4h68.2c1.8 0 3.6-0.2 5.4-0.8 1.8-0.6 3.4-1.4 4.8-2.6 1.4-1.2 2.8-2.4 3.8-4s1.8-3.2 2.4-5l14.6-51.6c0.4-1.2 0.8-2.2 1.6-3s1.6-1.6 2.6-2.2l58-29.8c1.4-0.6 2.4-1.6 3.2-3 0.8-1.2 1.2-2.6 1.2-4.2v-26.4c0-1.6 0.4-3.2 1.4-4.6l30.8-44.4c1-1.4 2.2-2.4 3.8-3l43-16.2c0.8-0.2 1.4-0.6 2.2-1.2 0.6-0.6 1.2-1 1.6-1.8 0.4-0.6 0.8-1.4 1-2.2 0.2-0.8 0.4-1.6 0.4-2.4v-24c0-1.4-0.4-2.6-1-3.8-0.6-1.2-1.6-2.2-2.6-2.8L452 182.4c-1.2-0.8-2.6-1.2-4-1.4-1.4 0-2.8 0.2-4.2 0.8l-58.8 29.4c-1.4 0.6-2.8 1-4.4 0.8-1.6-0.2-2.8-0.8-4-1.6l-27.8-22c-0.4-0.4-1-0.8-1.2-1.2-0.4-0.4-0.6-1-1-1.6l-0.6-1.8c-0.2-0.6-0.2-1.2-0.2-1.8 0-0.6 0-1.2 0.2-1.8l0.6-1.8c0.2-0.6 0.6-1 1-1.6s0.8-0.8 1.4-1.2l22.6-16.6c0.6-0.4 1-0.8 1.4-1.2 0.4-0.4 0.8-1 1-1.6l0.6-1.8c0.2-0.6 0.2-1.2 0.2-1.8s0-1.2-0.2-1.8l-0.6-1.8c-0.2-0.6-0.6-1-1-1.6-0.4-0.4-0.8-0.8-1.4-1.2l-35.2-24.6c-1.2-0.8-2.6-1.4-4.2-1.4s-3 0.2-4.2 1c-12.8 7-50.2 27.6-63.4 37-15.4 10.8-29.8 22.4-43.8 35-13.8 12.6-26.8 26-39 40.2-12.2 14.2-23.4 29.2-33.6 44.8-10.2 15.6-19.4 31.8-27.6 48.8-3.8 8-8.6 16-9 24.8-0.4 8.8-7.2 28.2-10.2 36-0.4 1-0.6 2.2-0.4 3.4 0 1.2 0.4 2.2 1 3.2l75.2 138.4c0.6 1.2 1.6 2.2 3 3l79.2 47.6c1 0.6 1.8 1.4 2.6 2.4 0.6 1 1 2.2 1.2 3.4l15.8 115c0.2 1.2 0.6 2.2 1.2 3.2s1.4 1.8 2.2 2.4l61.8 42.4c1.8 1.2 3 3 3.4 5.2l32.8 155.6c0.2 1 0.6 1.8 1 2.6 3 5 15.4 23.2 30.2 26-1.4 0.4-2.6 1.2-4 1.6 3.6 0.6 7 1.4 10.6 2.4 4.2 1.2 8.4 2.2 12.6 3 6.6 1.4 7.2 2.4 10.4-3.6 4.2-7.8 9-10.6 12.6-11.6 1.6-0.4 2.8-1 4-2.2 1.2-1.2 1.8-2.4 2.2-4l21.2-98.4c0.4-2.2 1.6-3.8 3.4-5.2l95-67.2c1.2-0.8 2-1.8 2.6-3 0.6-1.2 1-2.6 1-3.8v-126.4c0-1.4-0.2-2.6-0.8-3.8-0.8-1.6-1.6-2.6-2.8-3.4z m342.8-242.6c-0.2-1.2-0.6-2.4-1.4-3.6s-1.4-2.2-2.4-3c-1-0.8-2-1.6-3.2-2-1.2-0.4-2.4-0.8-3.8-0.8-1.2 0-2.6 0-3.8 0.4-1.2 0.4-2.4 0.8-3.4 1.6s-2 1.6-2.8 2.6c-0.8 1-1.4 2.2-1.8 3.4-0.4 1.2-1 2.2-1.6 3.2-0.8 1-1.6 1.8-2.6 2.6s-2 1.2-3.2 1.6c-1.2 0.4-2.4 0.6-3.6 0.6h-32.6c-2.2 0-4.2-0.6-6-1.6L803 350c-1.8-1.2-3.8-1.6-6-1.6h-75.6c-2.4 0-4.6 0.6-6.4 2l-93.2 62c-1.6 1-3 2.6-3.8 4.2-1 1.8-1.4 3.6-1.4 5.6v88c0 1 0.2 2 0.4 3.2s0.6 2 1.2 2.8c0.6 1 1.2 1.8 2 2.4 0.8 0.8 1.6 1.4 2.6 1.8l122.2 65.2c1 0.4 1.8 1 2.6 1.8s1.4 1.6 2 2.4c0.6 0.8 1 1.8 1.2 2.8 0.2 1 0.4 2 0.4 3l0.6 49.6c0 1 0.2 2 0.4 3s0.6 2 1.2 2.8l1.8 2.4c0.8 0.8 1.6 1.4 2.4 1.8l49 27.2c1 0.6 1.8 1.2 2.4 1.8 0.8 0.8 1.4 1.6 2 2.4 0.6 0.8 1 1.8 1.2 2.8 0.2 1 0.4 2 0.4 3v102.6c0 1.2 0.2 2.2 0.4 3.2 0.4 1 0.8 2 1.4 3 0.6 1 1.4 1.8 2.2 2.6 0.8 0.8 1.8 1.4 2.8 1.8 1 0.4 2 0.8 3.2 1s2.2 0.2 3.4 0 2.2-0.4 3.2-1c1-0.4 2-1 2.8-1.8 19.8-17.4 48.2-42.8 52-48.6 6.2-9.6 12.2-19.6 17.6-29.6 11.4-21 21-42.8 28.6-65.4 27-77.2 5.8-216.4-7.8-286.8zM538.8 977.2l-1.6-0.2c0.4 0.2 1 0.4 1.6 0.2z" p-id="10820" fill="#e6e6e6"></path><path d="M881.8 274l-12.2-19c-0.2-0.2-0.4-0.6-0.6-1-2.2-4.6-20.6-41.6-35.8-56-11.4-10.8-14.8-7.8-15.6-5.4-0.6 1.4-1.4 2.4-2.6 3.4l-60.8 49.2c-1.6 1.2-3.4 1.8-5.2 1.8h-31.4c-2.4 0-4.4 0.8-6 2.4L686 275c-0.4 0.4-0.8 0.8-1 1.2-0.4 0.4-0.6 1-0.8 1.4-0.2 0.6-0.4 1-0.4 1.6-0.2 0.6-0.2 1-0.2 1.6 0 0.6 0 1.2 0.2 1.6 0.2 0.6 0.2 1 0.4 1.6s0.4 1 0.8 1.4c0.4 0.4 0.6 0.8 1 1.2l25.4 25.4c1.6 1.6 3.6 2.4 6 2.4H876c0.6 0 1.2 0 1.6-0.2s1-0.2 1.6-0.6 1-0.4 1.4-0.8 1-0.6 1.2-1.2c0.4-0.4 0.8-0.8 1-1.4 0.4-0.4 0.6-1 0.8-1.6 0.2-0.6 0.4-1 0.4-1.6 0-0.6 0.2-1.2 0-1.6l-1.2-27.8c0.4-0.8-0.2-2.2-1-3.6z m-159-43.4l34-29.6c0.6-0.4 1-1 1.4-1.6s0.8-1.2 1-1.8 0.4-1.4 0.4-2v-2c0-0.6-0.2-1.4-0.6-2-0.2-0.6-0.6-1.2-1-1.8-0.4-0.6-1-1-1.4-1.6l-1.8-1.2-39.6-18.4c-0.4-0.2-1-0.4-1.6-0.6s-1-0.2-1.6-0.2h-1.6c-0.6 0-1 0.2-1.6 0.4-0.6 0.2-1 0.4-1.4 0.8s-1 0.6-1.4 1l-1.2 1.2c-0.4 0.4-0.6 1-0.8 1.4l-16.4 34.2c-0.4 1-0.8 2-0.8 3s0 2 0.4 3c0.2 1 0.8 2 1.4 2.8 0.6 0.8 1.4 1.6 2.2 2l22 13.8c0.8 0.4 1.6 0.8 2.4 1 0.8 0.2 1.8 0.2 2.6 0.2s1.8-0.2 2.6-0.6c1-0.4 1.6-0.8 2.4-1.4z m-194.6-152s-7.6 0.4-9.2 0.4c-11.4 0.4-22.8 1.2-34.2 2.4-41.6 4.6-81.8 14.8-120.6 31 5.2 3.6-3.6 6.8-3.6 6.8l13.8 27H448l50.6 25.4L543 146l-14.8-67.4z" p-id="10821" fill="#e6e6e6"></path><path d="M515.6 44.8c-261 0-472.4 211.6-472.4 472.4s211.6 472.4 472.4 472.4S988 778.2 988 517.2 776.6 44.8 515.6 44.8z m0 84.4c7.4 0 14.8 0.2 22.2 0.6 7.4 0.4 14.8 1 22.2 2s14.6 2 22 3.2 14.6 2.8 21.8 4.4c7.2 1.6 14.4 3.6 21.4 5.6 7.2 2 14.2 4.4 21.2 6.8 7 2.4 13.8 5.2 20.8 8 6.8 2.8 13.6 6 20.2 9.2 6.6 3.2 13.2 6.8 19.6 10.4s12.8 7.4 19 11.6c6.2 4 12.4 8.2 18.4 12.6 6 4.4 11.8 8.8 17.6 13.6s11.4 9.6 16.8 14.6 10.8 10.2 16 15.6c5.2 5.4 10.2 10.8 15 16.4 4.8 5.6 9.6 11.4 14 17.2s8.8 11.8 13 18 8.2 12.4 12 18.8c3.8 6.4 7.4 12.8 10.8 19.4 3.4 6.6 6.6 13.2 9.8 20 3 6.8 6 13.6 8.6 20.4s5.2 13.8 7.4 21c2.2 7 4.4 14.2 6.2 21.4 1.8 7.2 3.6 14.4 5 21.6 1.4 7.2 2.6 14.6 3.8 22s1.8 14.8 2.4 22a410.776 410.776 0 0 1 1.2 44.4c-0.2 7.4-0.6 14.8-1.4 22.2-0.6 7.4-1.6 14.8-2.6 22-1 7.4-2.4 14.6-3.8 21.8s-3.2 14.4-5.2 21.6c-2 7.2-4 14.2-6.4 21.2-2.4 7-4.8 14-7.6 20.8-2.8 6.8-5.6 13.8-8.8 20.4-3.2 6.8-6.4 13.4-10 19.8-3.4 6.6-7.2 13-11 19.2-3.8 6.4-8 12.6-12.2 18.6-4.2 6-8.6 12-13.2 18s-9.2 11.6-14.2 17.2c-4.8 5.6-10 11-15.2 16.2-5.2 5.2-10.6 10.4-16 15.4s-11.2 9.8-16.8 14.4c-5.8 4.6-11.6 9.2-17.6 13.4-6 4.4-12.2 8.4-18.4 12.4-6.2 4-12.6 7.8-19.2 11.4-6.4 3.6-13 7-19.8 10.2-6.6 3.2-13.4 6.2-20.2 9-6.8 2.8-13.8 5.4-20.8 8-7 2.4-14 4.6-21.2 6.8-7.2 2-14.4 3.8-21.6 5.4-7.2 1.6-14.6 3-21.8 4.2-7.4 1.2-14.6 2.2-22 3-7.4 0.8-14.8 1.4-22.2 1.8-7.4 0.4-14.8 0.6-22.2 0.4s-14.8-0.4-22.2-0.8c-7.4-0.4-14.8-1.2-22.2-2-7.4-1-14.6-2-22-3.4-7.2-1.4-14.6-2.8-21.8-4.6s-14.4-3.6-21.4-5.8c-7-2.2-14.2-4.6-21-7-7-2.6-13.8-5.4-20.6-8.2-6.8-3-13.6-6-20.2-9.4-6.6-3.4-13.2-6.8-19.6-10.6-6.4-3.8-12.8-7.6-19-11.6-6.2-4-12.2-8.4-18.2-12.8s-11.8-9-17.4-13.8c-5.6-4.8-11.2-9.6-16.6-14.8-5.4-5-10.6-10.2-15.8-15.6-5.2-5.4-10-10.8-14.8-16.6-4.8-5.6-9.4-11.4-13.8-17.4-4.4-6-8.8-12-12.8-18.2-4.2-6.2-8-12.4-11.8-18.8A367.906 367.906 0 0 1 161 674c-3-6.8-5.8-13.6-8.4-20.6s-5-14-7.2-21-4.2-14.2-6-21.4c-1.8-7.2-3.4-14.4-4.8-21.8-1.4-7.2-2.6-14.6-3.6-22s-1.8-14.8-2.2-22.2c-0.6-7.4-0.8-14.8-1-22.2-0.2-7.4 0-14.8 0.2-22.2 0.4-7.4 0.8-14.8 1.6-22.2 0.8-7.4 1.6-14.8 2.8-22 1.2-7.4 2.6-14.6 4-21.8 1.6-7.2 3.4-14.4 5.4-21.6 2-7.2 4.2-14.2 6.6-21.2 2.4-7 5-14 7.8-20.8 2.8-6.8 5.8-13.6 9-20.4 3.2-6.6 6.6-13.4 10-19.8 3.6-6.6 7.2-13 11.2-19.2 4-6.2 8-12.4 12.2-18.6 4.2-6 8.8-12 13.4-17.8 4.6-5.8 9.4-11.4 14.4-17s10-11 15.2-16.2c9-9 18.4-17.6 28.2-25.6s20-15.6 30.6-22.8c10.6-7 21.4-13.6 32.6-19.6 11.2-6 22.6-11.4 34.4-16.4 11.8-4.8 23.8-9.2 35.8-12.8 12.2-3.6 24.4-6.8 37-9.2 12.4-2.4 25-4.4 37.6-5.6 12.4-0.2 25-0.8 37.8-0.8" p-id="10822" fill="#e6e6e6"></path></svg>