<?xml version="1.0" standalone="no"?><!DOCTYPE svg PUBLIC "-//W3C//DTD SVG 1.1//EN" "http://www.w3.org/Graphics/SVG/1.1/DTD/svg11.dtd"><svg t="1637548301604" class="icon" viewBox="0 0 1024 1024" version="1.1" xmlns="http://www.w3.org/2000/svg" p-id="6072" xmlns:xlink="http://www.w3.org/1999/xlink" width="32" height="32"><defs><style type="text/css"></style></defs><path d="M128 192v640h768V416h-266.88a96 96 0 0 1-88.256-58.176L469.824 192H128z m411.552 0.32c1.472-0.224 2.944-0.32 4.448-0.32h256a96 96 0 0 1 96 96v64a64 64 0 0 1 64 64v416a64 64 0 0 1-64 64H128a64 64 0 0 1-64-64V192a64 64 0 0 1 64-64h341.792a64 64 0 0 1 58.816 38.784l10.944 25.536zM566.848 256l32.832 76.608a32 32 0 0 0 29.44 19.392H832V288a32 32 0 0 0-32-32h-233.152z" p-id="6073" fill="#000000"></path></svg>