<?xml version="1.0" standalone="no"?><!DOCTYPE svg PUBLIC "-//W3C//DTD SVG 1.1//EN" "http://www.w3.org/Graphics/SVG/1.1/DTD/svg11.dtd"><svg t="1646200803478" class="icon" viewBox="0 0 1024 1024" version="1.1" xmlns="http://www.w3.org/2000/svg" p-id="2129" xmlns:xlink="http://www.w3.org/1999/xlink" width="32" height="32"><defs><style type="text/css"></style></defs><path d="M719.42 64c79.155 0 143.033 65.48 144.303 146.24l0.02 2.451v125.946c54.174 18.81 93.26 69.93 94.238 130.322l0.019 2.322v354.357c0 76.744-61.537 139.104-137.918 140.343l-2.32 0.019H206.238c-76.676 0-138.98-61.592-140.218-138.041L66 825.638V471.28c0-63.103 41.603-116.48 98.854-134.151l0.002-124.439c0-81.062 63.086-147.353 141.928-148.671l2.394-0.02H719.42z m178.806 438.666l-40.073 38.96a30.066 30.066 0 0 1-7.605 7.394L549.856 841.346c-20.073 19.515-51.808 19.968-72.423 1.185l-0.683-0.633-350.977-331.069v314.809c0 44.034 35.308 79.813 79.133 80.525l1.331 0.01h611.526c43.994 0 79.742-35.34 80.453-79.203l0.01-1.332V502.666zM719.42 123.826H309.178c-45.983 0-83.786 38.761-84.538 87.389l-0.011 1.476-0.001 309.177 288.315 271.96 291.026-282.931V212.691c0-48.824-37.344-88.073-83.158-88.853l-1.391-0.011zM617.753 523.055c16.505 0 29.886 13.392 29.886 29.913 0 16.284-13 29.53-29.181 29.905l-0.705 0.008H408.546c-16.506 0-29.886-13.393-29.886-29.913 0-16.285 13-29.53 29.18-29.905l0.706-0.008h209.207z m-483.959-86.868l31.061 29.299v-63.287a80.865 80.865 0 0 0-31.06 33.988z m729.95-31.005l-0.002 47.606 17.842-17.345a29.952 29.952 0 0 1 5.865-4.448 80.887 80.887 0 0 0-23.706-25.813z m-150.388-42.048c16.506 0 29.887 13.392 29.887 29.913 0 16.285-13.001 29.53-29.181 29.905l-0.706 0.008H316.588c-16.506 0-29.887-13.392-29.887-29.913 0-16.285 13.001-29.53 29.181-29.905l0.706-0.008h396.768zM466.021 208.964c16.506 0 29.886 13.393 29.886 29.914 0 16.284-13 29.53-29.18 29.905l-0.706 0.008H316.588c-16.506 0-29.887-13.393-29.887-29.913 0-16.285 13.001-29.53 29.181-29.906l0.706-0.008H466.02z" fill="#8a8a8a" p-id="2130"></path></svg>