<svg xmlns="http://www.w3.org/2000/svg" width="20" height="20" viewBox="0 0 20 20">
  <defs>
    <style>
      .cls-1 {
        fill: #fff;
        fill-rule: evenodd;
      }
    </style>
  </defs>
  <path id="シェイプ_9" data-name="シェイプ 9" class="cls-1" d="M58.782,243.21a0.735,0.735,0,0,0-.79-0.162l-18.527,7.415a0.732,0.732,0,0,0,.008,1.363l7.713,2.981,2.981,7.715a0.733,0.733,0,0,0,.678.468h0a0.732,0.732,0,0,0,.68-0.46L58.943,244A0.733,0.733,0,0,0,58.782,243.21ZM55.2,245.742l-7.669,7.63-5.8-2.241Zm-4.341,14.515-2.269-5.871,7.673-7.635Z" transform="translate(-39 -243)"/>
</svg>
