<svg xmlns="http://www.w3.org/2000/svg" width="20" height="18" viewBox="0 0 20 18">
  <defs>
    <style>
      .cls-1 {
        fill: #0984e3;
        fill-rule: evenodd;
      }
    </style>
  </defs>
  <path id="シェイプ_18" data-name="シェイプ 18" class="cls-1" d="M305.158,725.517a0.722,0.722,0,0,1-.514-0.214l-2.732-2.741a0.73,0.73,0,1,1,1.03-1.035l2.219,2.227,4.583-4.56a0.73,0.73,0,0,1,1.026,1.039l-5.1,5.073A0.726,0.726,0,0,1,305.158,725.517Zm-2.781,1.491h-9.832a0.726,0.726,0,0,1-.455-0.16A1.554,1.554,0,0,1,291,725.363v-14.8a1.552,1.552,0,0,1,1.547-1.554h12.928a1.552,1.552,0,0,1,1.547,1.554v8.133a0.728,0.728,0,1,1-1.456,0v-8.133a0.088,0.088,0,0,0-.091-0.092H292.545a0.088,0.088,0,0,0-.091.092v14.8a0.089,0.089,0,0,0,.091.092,0.724,0.724,0,0,1,.353.091h9.479A0.731,0.731,0,0,1,302.377,727.008Zm0-7.585h-6.828a0.731,0.731,0,0,1,0-1.462h6.828A0.731,0.731,0,0,1,302.377,719.423Zm0-3.382h-6.828a0.731,0.731,0,0,1,0-1.461h6.828A0.731,0.731,0,0,1,302.377,716.041Zm-3.043,6.672h-3.785a0.731,0.731,0,0,1,0-1.462h3.785A0.731,0.731,0,0,1,299.334,722.713Z" transform="translate(-291 -709)"/>
</svg>
