<svg xmlns="http://www.w3.org/2000/svg" width="16.969" height="20.125" viewBox="0 0 16.969 20.125">
  <defs>
    <style>
      .cls-1 {
        fill: #0a84e3;
        fill-rule: evenodd;
      }
    </style>
  </defs>
  <path id="シェイプ_12" data-name="シェイプ 12" class="cls-1" d="M299.538,727.134H283.951a0.75,0.75,0,0,1,0-1.5h15.587A0.75,0.75,0,0,1,299.538,727.134Zm-11.913-3.727h-3.674a0.722,0.722,0,0,1-.692-0.748V718.69a0.783,0.783,0,0,1,.2-0.529l9.9-10.7a1.479,1.479,0,0,1,2.2,0l2.45,2.647a1.781,1.781,0,0,1,0,2.38l-9.9,10.7A0.665,0.665,0,0,1,287.625,723.407Zm-2.981-1.5h2.694l9.7-10.477a0.2,0.2,0,0,0,0-.264l-2.45-2.647a0.164,0.164,0,0,0-.245,0L284.644,719v2.911Z" transform="translate(-283.25 -707)"/>
</svg>
