<svg xmlns="http://www.w3.org/2000/svg" width="13" height="14" viewBox="0 0 13 14">
  <defs>
    <style>
      .cls-1 {
        fill: #fff;
        fill-rule: evenodd;
      }
    </style>
  </defs>
  <path id="シェイプ_8" data-name="シェイプ 8" class="cls-1" d="M277.526,686.919h-4.907l1.735-1.756h0a0.7,0.7,0,0,0,0-.98,0.678,0.678,0,0,0-.967,0L270,687.612l3.387,3.429a0.678,0.678,0,0,0,.967,0,0.7,0.7,0,0,0,0-.98h0l-1.735-1.755h4.907a4.156,4.156,0,0,1,0,8.311h-6.158a0.693,0.693,0,0,0,0,1.386h6.158A5.542,5.542,0,0,0,277.526,686.919Z" transform="translate(-270 -684)"/>
</svg>
