<svg xmlns="http://www.w3.org/2000/svg" width="43" height="46.062" viewBox="0 0 43 46.062">
  <defs>
    <style>
      .cls-1 {
        fill: #fff;
        fill-rule: evenodd;
      }
    </style>
  </defs>
  <path id="シェイプ_8_のコピー" data-name="シェイプ 8 のコピー" class="cls-1" d="M190.9,343.592H174.663l5.737-5.769,0,0a2.284,2.284,0,0,0,0-3.218,2.253,2.253,0,0,0-3.2,0L166,345.868l11.2,11.265a2.253,2.253,0,0,0,3.2,0,2.284,2.284,0,0,0,0-3.218l0,0-5.737-5.769H190.9a13.655,13.655,0,0,1,0,27.31H170.526a2.276,2.276,0,0,0,0,4.552H190.9A18.207,18.207,0,0,0,190.9,343.592Z" transform="translate(-166 -333.938)"/>
</svg>
