<svg xmlns="http://www.w3.org/2000/svg" width="14.969" height="16.156" viewBox="0 0 14.969 16.156">
  <defs>
    <style>
      .cls-1 {
        fill: #0a84e3;
        fill-rule: evenodd;
      }
    </style>
  </defs>
  <path id="シェイプ_8" data-name="シェイプ 8" class="cls-1" d="M189.037,712.351h-5.654l2-2.024h0a0.808,0.808,0,0,0,0-1.13,0.781,0.781,0,0,0-1.115,0l-3.9,3.953,3.9,3.952a0.781,0.781,0,0,0,1.115,0,0.807,0.807,0,0,0,0-1.129h0l-2-2.024h5.654a4.791,4.791,0,0,1,0,9.582h-7.095a0.8,0.8,0,0,0,0,1.6h7.095A6.389,6.389,0,0,0,189.037,712.351Z" transform="translate(-180.375 -708.969)"/>
</svg>
