<svg xmlns="http://www.w3.org/2000/svg" width="17" height="17" viewBox="0 0 17 17">
  <defs>
    <style>
      .cls-1 {
        fill: #0984e3;
        fill-rule: evenodd;
      }
    </style>
  </defs>
  <path id="シェイプ_43" data-name="シェイプ 43" class="cls-1" d="M1405.5,97h0a8.5,8.5,0,1,1,0-17h0a8.474,8.474,0,0,1,4.7,1.42l-0.72,1.089a7.172,7.172,0,0,0-3.98-1.2h0a7.192,7.192,0,1,0,0,14.385h0a7.2,7.2,0,0,0,7.19-7.189,6.834,6.834,0,0,0-.32-2.106l1.25-.389A8.483,8.483,0,0,1,1405.5,97Zm-0.43-5.65-3.27-3.278,0.92-.924,2.35,2.354,7.11-7.107,0.92,0.925Z" transform="translate(-1397 -80)"/>
</svg>
